<svg width="317" height="70" viewBox="0 0 317 70" fill="none" xmlns="http://www.w3.org/2000/svg">
<g clip-path="url(#clip0_297_3)">
<path d="M0 35C0 48.5466 7.61157 60.3219 18.7194 66.1646V62.1451C9.59477 56.6377 3.46827 46.5344 3.46827 35C3.46827 24.6984 8.35644 15.5351 15.9028 9.76788V50.6012H18.7194V7.85493C21.7686 6.01282 25.1531 4.68556 28.7564 3.99123V69.5844C29.897 69.7827 31.0515 69.9197 32.2247 70V0C31.0515 0.0802969 29.897 0.221997 28.7564 0.415655C12.4532 3.23549 0 17.6653 0 35Z" fill="#CBBAA1"/>
<path d="M40.6138 0.415655C39.4732 0.217274 38.3187 0.0802969 37.1455 0V70C38.3187 69.9197 39.4732 69.778 40.6138 69.5844V3.99123C44.2171 4.68556 47.6015 6.01282 50.6508 7.85493V50.6012H53.4673V9.76788C61.0137 15.5351 65.9019 24.6984 65.9019 35C65.9019 46.5297 59.7754 56.6329 50.6508 62.1451V66.1646C61.7586 60.3171 69.3702 48.5466 69.3702 35C69.3702 17.6653 56.917 3.23549 40.6138 0.415655Z" fill="#CBBAA1"/>
<path d="M83.7415 24.0891H87.2423L89.03 31.585L90.8177 24.0891H94.3185V34.3671H92.2608V26.4177H92.0374L90.0542 33.9136H88.0012L86.018 26.4177H85.7945V34.3671H83.7368V24.0891H83.7415Z" fill="#CBBAA1"/>
<path d="M103.266 32.7375C104.472 32.7375 105.068 32.1471 105.068 30.9379V24.0891H107.121V30.8907C107.121 33.4602 105.794 34.5465 103.262 34.5465C100.729 34.5465 99.4023 33.4602 99.4023 30.8907V24.0891H101.46V30.9379C101.46 32.1613 102.056 32.7375 103.262 32.7375H103.266Z" fill="#CBBAA1"/>
<path d="M112.214 24.0891H115.687L118.131 32.5533H118.28V24.0891H120.338V34.3671H116.958L114.425 25.9028H114.276V34.3671H112.219V24.0891H112.214ZM119.067 21.9588C119.067 21.9588 118.275 22.913 117.474 22.913C116.674 22.913 115.449 22.2186 114.956 22.2186C114.537 22.2186 113.764 22.8516 113.764 22.8516L113.331 21.4015C113.331 21.4015 114.137 20.4332 114.923 20.4332C115.831 20.4332 116.995 21.1275 117.409 21.1275C117.796 21.1275 118.629 20.4946 118.629 20.4946L119.062 21.9588H119.067Z" fill="#CBBAA1"/>
<path d="M125.063 29.2895C125.063 25.8131 126.078 23.9096 129.262 23.9096C132.446 23.9096 133.461 25.8131 133.461 29.2895C133.461 32.7659 132.446 34.5513 129.262 34.5513C126.078 34.5513 125.063 32.7659 125.063 29.2895ZM131.348 29.2895C131.348 26.9183 130.929 25.7233 129.262 25.7233C127.596 25.7233 127.177 26.9183 127.177 29.2895C127.177 31.6606 127.596 32.7375 129.262 32.7375C130.929 32.7375 131.348 31.6653 131.348 29.2895Z" fill="#CBBAA1"/>
<path d="M137.702 24.0891H144.406V25.9028L140.174 32.2794V32.5533H144.406V34.3671H137.702V32.5675L141.934 26.1721V25.8981H137.702V24.0844V24.0891Z" fill="#CBBAA1"/>
<path d="M155.351 24.0891H158.852L160.639 31.585L162.427 24.0891H165.928V34.3671H163.87V26.4177H163.647L161.664 33.9136H159.611L157.627 26.4177H157.404V34.3671H155.346V24.0891H155.351Z" fill="#CBBAA1"/>
<path d="M172.534 24.0891H176.435L178.716 34.3671H176.659L176.258 32.5061H172.711L172.311 34.3671H170.253L172.534 24.0891ZM173.097 30.697H175.867L174.838 25.8178H174.122L173.093 30.697H173.097Z" fill="#CBBAA1"/>
<path d="M183.046 24.0891H186.519L188.963 32.5533H189.112V24.0891H191.17V34.3671H187.79L185.257 25.9028H185.108V34.3671H183.051V24.0891H183.046Z" fill="#CBBAA1"/>
<path d="M195.848 24.0891H202.552V25.9028L198.32 32.2794V32.5533H202.552V34.3671H195.848V32.5675L200.08 26.1721V25.8981H195.848V24.0844V24.0891Z" fill="#CBBAA1"/>
<path d="M206.793 29.2895C206.793 25.8131 207.808 23.9096 210.992 23.9096C214.176 23.9096 215.191 25.8131 215.191 29.2895C215.191 32.7659 214.176 34.5513 210.992 34.5513C207.808 34.5513 206.793 32.7659 206.793 29.2895ZM213.082 29.2895C213.082 26.9183 212.663 25.7233 210.997 25.7233C209.33 25.7233 208.911 26.9183 208.911 29.2895C208.911 31.6606 209.33 32.7375 210.997 32.7375C212.663 32.7375 213.082 31.6653 213.082 29.2895Z" fill="#CBBAA1"/>
<path d="M234.181 24.3016C234.181 26.4507 233.264 27.4757 230.954 29.1005L233.264 31.4386C233.45 30.9379 233.687 29.2186 233.71 28.3826L236.769 28.4534C236.555 30.1491 236.038 32.1565 235.568 33.2996L238.203 35.6376L236.415 37.7159L233.92 35.6376C232.886 36.809 231.094 37.7159 229.097 37.7159C224.297 37.7159 222.766 35.8549 222.766 32.747C222.766 30.0972 223.85 28.8077 226.108 27.9008C224.814 26.2996 224.553 25.6336 224.553 24.0324C224.553 21.7888 226.485 20.4285 229.376 20.4285C232.458 20.4285 234.176 21.7888 234.176 24.2969L234.181 24.3016ZM231.783 33.9042L227.71 29.7712C226.602 30.3192 225.969 31.1788 225.969 32.4919C225.969 34.0695 226.839 34.8536 228.697 34.8536C229.921 34.8536 231.285 34.471 231.778 33.8995L231.783 33.9042ZM228.813 26.8569L229.213 27.2868C230.438 26.3799 230.978 25.7564 230.978 24.6606C230.978 23.5648 230.414 23.1538 229.376 23.1538C228.338 23.1538 227.752 23.6309 227.752 24.7551C227.752 25.5202 228.105 26.0918 228.813 26.8569Z" fill="#CBBAA1"/>
<path d="M245.405 29.2895C245.405 25.8131 246.42 23.9096 249.604 23.9096C252.788 23.9096 253.803 25.8131 253.803 29.2895C253.803 32.7659 252.788 34.5513 249.604 34.5513C246.42 34.5513 245.405 32.7659 245.405 29.2895ZM251.69 29.2895C251.69 26.9183 251.271 25.7233 249.604 25.7233C247.937 25.7233 247.518 26.9183 247.518 29.2895C247.518 31.6606 247.937 32.7375 249.604 32.7375C251.271 32.7375 251.69 31.6653 251.69 29.2895Z" fill="#CBBAA1"/>
<path d="M264.958 34.2018C264.273 34.3529 262.933 34.5513 262.006 34.5513C258.878 34.5513 258.133 32.8273 258.133 29.2328C258.133 25.3313 258.994 23.9143 262.006 23.9143C263.063 23.9143 264.343 24.1694 264.972 24.3205L264.911 25.9831C264.227 25.8792 262.974 25.7564 262.304 25.7564C260.74 25.7564 260.246 26.3138 260.246 29.2328C260.246 32.0007 260.605 32.7092 262.36 32.7092C263.044 32.7092 264.311 32.5864 264.906 32.4966L264.948 34.2065L264.958 34.2018Z" fill="#CBBAA1"/>
<path d="M271.028 24.0891H274.929L277.211 34.3671H275.153L274.753 32.5061H271.205L270.805 34.3671H268.747L271.028 24.0891ZM271.596 30.697H274.366L273.337 25.8178H272.62L271.592 30.697H271.596Z" fill="#CBBAA1"/>
<path d="M281.54 24.0891H285.041L286.828 31.585L288.616 24.0891H292.117V34.3671H290.059V26.4177H289.836L287.853 33.9136H285.799L283.816 26.4177H283.593V34.3671H281.535V24.0891H281.54Z" fill="#CBBAA1"/>
<path d="M299.352 31.3772V34.3718H297.294V24.0938H301.018C303.402 24.0938 304.622 25.2746 304.622 27.6599C304.622 30.0452 303.402 31.3772 301.018 31.3772H299.352ZM301.004 29.5918C302.033 29.5918 302.541 28.9588 302.541 27.6552C302.541 26.3515 302.033 25.8698 301.004 25.8698H299.352V29.587H301.004V29.5918Z" fill="#CBBAA1"/>
<path d="M308.597 29.2895C308.597 25.8131 309.612 23.9096 312.796 23.9096C315.981 23.9096 316.995 25.8131 316.995 29.2895C316.995 32.7659 315.981 34.5513 312.796 34.5513C309.612 34.5513 308.597 32.7659 308.597 29.2895ZM314.882 29.2895C314.882 26.9183 314.463 25.7233 312.796 25.7233C311.13 25.7233 310.711 26.9183 310.711 29.2895C310.711 31.6606 311.13 32.7375 312.796 32.7375C314.463 32.7375 314.882 31.6653 314.882 29.2895Z" fill="#CBBAA1"/>
<path d="M128.638 42.6565H130.268L132.111 49.4676H131.376L130.891 47.7152H128.019L127.535 49.4676H126.799L128.643 42.6565H128.638ZM128.182 47.0398H130.724L129.704 43.3083H129.202L128.182 47.0398Z" fill="#CBBAA1"/>
<path d="M140.747 43.3887C140.747 43.3887 139.397 43.2186 138.838 43.2186C137.889 43.2186 137.381 43.5634 137.381 44.3286C137.381 45.2166 137.847 45.363 139.02 45.6275C140.361 45.9346 140.952 46.2652 140.952 47.4555C140.952 48.9622 140.137 49.5526 138.81 49.5526C138.014 49.5526 136.687 49.3354 136.687 49.3354L136.767 48.7072C136.767 48.7072 138.084 48.8819 138.773 48.8819C139.723 48.8819 140.207 48.4568 140.207 47.5169C140.207 46.747 139.811 46.5344 138.713 46.3171C137.325 46.0101 136.627 45.6795 136.627 44.3806C136.627 43.0816 137.479 42.5479 138.792 42.5479C139.588 42.5479 140.821 42.7463 140.821 42.7463L140.752 43.3839L140.747 43.3887Z" fill="#CBBAA1"/>
<path d="M146.124 42.6565H150.207V43.3272H146.869V45.6795H149.625V46.3407H146.869V48.8016H150.207V49.4723H146.124V42.6612V42.6565Z" fill="#CBBAA1"/>
<path d="M159.108 43.3887C159.108 43.3887 157.758 43.2186 157.194 43.2186C156.245 43.2186 155.742 43.5634 155.742 44.3286C155.742 45.2166 156.207 45.363 157.381 45.6275C158.721 45.9346 159.313 46.2652 159.313 47.4555C159.313 48.9622 158.498 49.5526 157.171 49.5526C156.375 49.5526 155.048 49.3354 155.048 49.3354L155.127 48.7072C155.127 48.7072 156.445 48.8819 157.134 48.8819C158.084 48.8819 158.568 48.4568 158.568 47.5169C158.568 46.747 158.172 46.5344 157.073 46.3171C155.686 46.0101 154.988 45.6795 154.988 44.3806C154.988 43.0816 155.84 42.5479 157.153 42.5479C157.949 42.5479 159.178 42.7463 159.178 42.7463L159.112 43.3839L159.108 43.3887Z" fill="#CBBAA1"/>
<path d="M164.215 46.0904C164.215 43.8468 164.787 42.5573 166.864 42.5573C168.94 42.5573 169.522 43.8279 169.522 46.0904C169.522 48.3529 168.949 49.5668 166.864 49.5668C164.778 49.5668 164.215 48.3765 164.215 46.0904ZM168.745 46.0904C168.745 44.2483 168.395 43.2281 166.864 43.2281C165.332 43.2281 164.983 44.2436 164.983 46.0904C164.983 47.9372 165.314 48.8961 166.864 48.8961C168.414 48.8961 168.745 48.0081 168.745 46.0904Z" fill="#CBBAA1"/>
<path d="M175.518 46.8603V49.4676H174.773V42.6565H177.254C178.66 42.6565 179.4 43.2847 179.4 44.7254C179.4 45.7314 179.014 46.4305 178.167 46.7044L179.456 49.4723H178.632L177.422 46.865H175.518V46.8603ZM177.254 43.3272H175.518V46.1896H177.264C178.274 46.1896 178.632 45.5803 178.632 44.7206C178.632 43.7854 178.195 43.3225 177.254 43.3225V43.3272Z" fill="#CBBAA1"/>
<path d="M184.628 42.6565H188.711V43.3272H185.373V45.6795H188.129V46.3407H185.373V48.8016H188.711V49.4723H184.628V42.6612V42.6565Z" fill="#CBBAA1"/>
<path d="M197.613 43.3887C197.613 43.3887 196.263 43.2186 195.704 43.2186C194.754 43.2186 194.247 43.5634 194.247 44.3286C194.247 45.2166 194.712 45.363 195.886 45.6275C197.226 45.9346 197.818 46.2652 197.818 47.4555C197.818 48.9622 197.003 49.5526 195.676 49.5526C194.88 49.5526 193.553 49.3354 193.553 49.3354L193.632 48.7072C193.632 48.7072 194.95 48.8819 195.639 48.8819C196.589 48.8819 197.073 48.4568 197.073 47.5169C197.073 46.747 196.677 46.5344 195.578 46.3171C194.191 46.0101 193.493 45.6795 193.493 44.3806C193.493 43.0816 194.345 42.5479 195.657 42.5479C196.454 42.5479 197.687 42.7463 197.687 42.7463L197.617 43.3839L197.613 43.3887Z" fill="#CBBAA1"/>
<path d="M209.009 42.6565H213.026V43.3272H209.758V45.9865H212.524V46.6572H209.758V49.4723H209.013V42.6612L209.009 42.6565Z" fill="#CBBAA1"/>
<path d="M217.994 42.6565H218.739V49.4676H217.994V42.6565Z" fill="#CBBAA1"/>
<path d="M228.026 43.3887C228.026 43.3887 226.676 43.2186 226.117 43.2186C225.168 43.2186 224.66 43.5634 224.66 44.3286C224.66 45.2166 225.126 45.363 226.299 45.6275C227.64 45.9346 228.231 46.2652 228.231 47.4555C228.231 48.9622 227.416 49.5526 226.085 49.5526C225.289 49.5526 223.962 49.3354 223.962 49.3354L224.041 48.7072C224.041 48.7072 225.359 48.8819 226.047 48.8819C226.997 48.8819 227.481 48.4568 227.481 47.5169C227.481 46.747 227.081 46.5344 225.987 46.3171C224.6 46.0101 223.901 45.6795 223.901 44.3806C223.901 43.0816 224.753 42.5479 226.066 42.5479C226.862 42.5479 228.096 42.7463 228.096 42.7463L228.026 43.3839V43.3887Z" fill="#CBBAA1"/>
<path d="M237.458 49.359C236.983 49.4582 236.248 49.5668 235.605 49.5668C233.599 49.5668 233.152 48.3245 233.152 46.081C233.152 43.8374 233.589 42.5573 235.605 42.5573C236.294 42.5573 237.03 42.6849 237.458 42.7746L237.43 43.4123C236.993 43.332 236.206 43.2375 235.684 43.2375C234.19 43.2375 233.929 44.1444 233.929 46.081C233.929 48.0175 234.171 48.8866 235.703 48.8866C236.248 48.8866 236.965 48.7969 237.43 48.7119L237.458 49.359Z" fill="#CBBAA1"/>
<path d="M243.817 42.6565H245.447L247.29 49.4676H246.555L246.071 47.7152H243.198L242.714 49.4676H241.979L243.822 42.6565H243.817ZM243.361 47.0398H245.903L244.883 43.3083H244.381L243.361 47.0398Z" fill="#CBBAA1"/>
<path d="M252.23 49.4676V42.6565H252.975V48.7874H255.921V49.4676H252.225H252.23Z" fill="#CBBAA1"/>
<path d="M260.763 42.6565H264.846V43.3272H261.508V45.6795H264.264V46.3407H261.508V48.8016H264.846V49.4723H260.763V42.6612V42.6565Z" fill="#CBBAA1"/>
<path d="M273.747 43.3887C273.747 43.3887 272.397 43.2186 271.838 43.2186C270.888 43.2186 270.381 43.5634 270.381 44.3286C270.381 45.2166 270.846 45.363 272.02 45.6275C273.36 45.9346 273.952 46.2652 273.952 47.4555C273.952 48.9622 273.137 49.5526 271.805 49.5526C271.009 49.5526 269.683 49.3354 269.683 49.3354L269.762 48.7072C269.762 48.7072 271.079 48.8819 271.768 48.8819C272.718 48.8819 273.202 48.4568 273.202 47.5169C273.202 46.747 272.802 46.5344 271.708 46.3171C270.32 46.0101 269.622 45.6795 269.622 44.3806C269.622 43.0816 270.474 42.5479 271.787 42.5479C272.583 42.5479 273.817 42.7463 273.817 42.7463L273.747 43.3839V43.3887Z" fill="#CBBAA1"/>
</g>
<defs>
<clipPath id="clip0_297_3">
<rect width="317" height="70" fill="white"/>
</clipPath>
</defs>
</svg>
