<svg width="234" height="50" viewBox="0 0 234 50" fill="none" xmlns="http://www.w3.org/2000/svg">
<g clip-path="url(#clip0_69_768)">
<path d="M0 25C0 34.6761 5.61494 43.087 13.809 47.2605V44.3893C7.07792 40.4555 2.55849 33.2389 2.55849 25C2.55849 17.6417 6.16442 11.0965 11.7313 6.97706V36.1437H13.809V5.61066C16.0584 4.29487 18.5551 3.34683 21.2132 2.85088V49.7031C22.0545 49.8448 22.9062 49.9426 23.7717 50V0C22.9062 0.0573549 22.0545 0.158569 21.2132 0.296896C9.18653 2.31107 0 12.6181 0 25Z" fill="#535E6B"/>
<path d="M29.9603 0.296896C29.119 0.155196 28.2673 0.0573549 27.4019 0V50C28.2673 49.9426 29.119 49.8414 29.9603 49.7031V2.85088C32.6184 3.34683 35.1151 4.29487 37.3645 5.61066V36.1437H39.4422V6.97706C45.0091 11.0965 48.615 17.6417 48.615 25C48.615 33.2355 44.0956 40.4521 37.3645 44.3893V47.2605C45.5586 43.0837 51.1735 34.6761 51.1735 25C51.1735 12.6181 41.987 2.31107 29.9603 0.296896Z" fill="#535E6B"/>
<path d="M61.7749 17.2065H64.3574L65.6762 22.5608L66.9949 17.2065H69.5775V24.548H68.0595V18.8698H67.8947L66.4317 24.2241H64.9172L63.4543 18.8698H63.2894V24.548H61.7715V17.2065H61.7749Z" fill="#535E6B"/>
<path d="M76.178 23.384C77.0675 23.384 77.5071 22.9623 77.5071 22.0986V17.2065H79.0216V22.0648C79.0216 23.9002 78.0428 24.6762 76.1746 24.6762C74.3064 24.6762 73.3276 23.9002 73.3276 22.0648V17.2065H74.8456V22.0986C74.8456 22.9724 75.2851 23.384 76.1746 23.384H76.178Z" fill="#535E6B"/>
<path d="M82.7788 17.2066H85.3407L87.1437 23.2524H87.2536V17.2066H88.7715V24.548H86.2783L84.4101 18.5021H84.3002V24.548H82.7822V17.2066H82.7788ZM87.834 15.685C87.834 15.685 87.2502 16.3665 86.6595 16.3665C86.0688 16.3665 85.1656 15.8705 84.8016 15.8705C84.4925 15.8705 83.9224 16.3226 83.9224 16.3226L83.603 15.2868C83.603 15.2868 84.1971 14.5952 84.7775 14.5952C85.4472 14.5952 86.3058 15.0912 86.6114 15.0912C86.8964 15.0912 87.5112 14.6391 87.5112 14.6391L87.8305 15.685H87.834Z" fill="#535E6B"/>
<path d="M92.2568 20.9211C92.2568 18.438 93.0055 17.0784 95.3545 17.0784C97.7035 17.0784 98.4522 18.438 98.4522 20.9211C98.4522 23.4043 97.7035 24.6796 95.3545 24.6796C93.0055 24.6796 92.2568 23.4043 92.2568 20.9211ZM96.893 20.9211C96.893 19.2275 96.5839 18.3739 95.3545 18.3739C94.125 18.3739 93.816 19.2275 93.816 20.9211C93.816 22.6148 94.125 23.384 95.3545 23.384C96.5839 23.384 96.893 22.6182 96.893 20.9211Z" fill="#535E6B"/>
<path d="M101.581 17.2065H106.526V18.502L103.405 23.0567V23.2524H106.526V24.5479H101.581V23.2625L104.703 18.6944V18.4987H101.581V17.2031V17.2065Z" fill="#535E6B"/>
<path d="M114.6 17.2065H117.183L118.501 22.5608L119.82 17.2065H122.403V24.548H120.885V18.8698H120.72L119.257 24.2241H117.742L116.279 18.8698H116.115V24.548H114.597V17.2065H114.6Z" fill="#535E6B"/>
<path d="M127.276 17.2065H130.153L131.836 24.548H130.318L130.023 23.2187H127.406L127.111 24.548H125.593L127.276 17.2065ZM127.691 21.9265H129.734L128.975 18.4414H128.447L127.688 21.9265H127.691Z" fill="#535E6B"/>
<path d="M135.03 17.2065H137.592L139.395 23.2524H139.505V17.2065H141.023V24.548H138.53L136.662 18.5021H136.552V24.548H135.034V17.2065H135.03Z" fill="#535E6B"/>
<path d="M144.474 17.2065H149.419V18.502L146.298 23.0567V23.2524H149.419V24.5479H144.474V23.2625L147.596 18.6944V18.4987H144.474V17.2031V17.2065Z" fill="#535E6B"/>
<path d="M152.548 20.9211C152.548 18.438 153.297 17.0784 155.646 17.0784C157.995 17.0784 158.744 18.438 158.744 20.9211C158.744 23.4043 157.995 24.6796 155.646 24.6796C153.297 24.6796 152.548 23.4043 152.548 20.9211ZM157.188 20.9211C157.188 19.2275 156.879 18.3739 155.649 18.3739C154.42 18.3739 154.111 19.2275 154.111 20.9211C154.111 22.6148 154.42 23.384 155.649 23.384C156.879 23.384 157.188 22.6182 157.188 20.9211Z" fill="#535E6B"/>
<path d="M172.752 17.3583C172.752 18.8934 172.075 19.6255 170.372 20.7861L172.075 22.4562C172.213 22.0985 172.388 20.8705 172.405 20.2733L174.661 20.3239C174.503 21.5351 174.122 22.969 173.775 23.7855L175.719 25.4555L174.4 26.94L172.559 25.4555C171.797 26.2922 170.475 26.94 169.002 26.94C165.461 26.94 164.331 25.6107 164.331 23.3907C164.331 21.498 165.131 20.577 166.797 19.9292C165.842 18.7855 165.65 18.3097 165.65 17.166C165.65 15.5635 167.075 14.5918 169.208 14.5918C171.481 14.5918 172.748 15.5635 172.748 17.355L172.752 17.3583ZM170.983 24.2173L167.978 21.2652C167.161 21.6566 166.694 22.2706 166.694 23.2085C166.694 24.3354 167.336 24.8954 168.706 24.8954C169.609 24.8954 170.616 24.6222 170.98 24.2139L170.983 24.2173ZM168.792 19.1836L169.087 19.4906C169.991 18.8428 170.389 18.3975 170.389 17.6147C170.389 16.832 169.973 16.5385 169.208 16.5385C168.442 16.5385 168.009 16.8792 168.009 17.6822C168.009 18.2288 168.27 18.637 168.792 19.1836Z" fill="#535E6B"/>
<path d="M181.032 20.9211C181.032 18.438 181.78 17.0784 184.129 17.0784C186.478 17.0784 187.227 18.438 187.227 20.9211C187.227 23.4043 186.478 24.6796 184.129 24.6796C181.78 24.6796 181.032 23.4043 181.032 20.9211ZM185.668 20.9211C185.668 19.2275 185.359 18.3739 184.129 18.3739C182.9 18.3739 182.591 19.2275 182.591 20.9211C182.591 22.6148 182.9 23.384 184.129 23.384C185.359 23.384 185.668 22.6182 185.668 20.9211Z" fill="#535E6B"/>
<path d="M195.455 24.43C194.951 24.5379 193.962 24.6796 193.278 24.6796C190.97 24.6796 190.421 23.4482 190.421 20.8807C190.421 18.0939 191.056 17.0818 193.278 17.0818C194.058 17.0818 195.002 17.264 195.466 17.3719L195.421 18.5595C194.916 18.4853 193.992 18.3976 193.498 18.3976C192.344 18.3976 191.98 18.7957 191.98 20.8807C191.98 22.8578 192.244 23.3638 193.539 23.3638C194.044 23.3638 194.978 23.2761 195.418 23.212L195.449 24.4333L195.455 24.43Z" fill="#535E6B"/>
<path d="M199.934 17.2065H202.812L204.494 24.548H202.976L202.681 23.2187H200.064L199.769 24.548H198.251L199.934 17.2065ZM200.353 21.9265H202.396L201.637 18.4414H201.108L200.349 21.9265H200.353Z" fill="#535E6B"/>
<path d="M207.688 17.2065H210.271L211.589 22.5608L212.908 17.2065H215.491V24.548H213.973V18.8698H213.808L212.345 24.2241H210.83L209.367 18.8698H209.202V24.548H207.685V17.2065H207.688Z" fill="#535E6B"/>
<path d="M220.828 22.4124V24.5514H219.31V17.21H222.057C223.815 17.21 224.715 18.0534 224.715 19.7572C224.715 21.461 223.815 22.4124 222.057 22.4124H220.828ZM222.047 21.1371C222.806 21.1371 223.18 20.685 223.18 19.7538C223.18 18.8226 222.806 18.4785 222.047 18.4785H220.828V21.1337H222.047V21.1371Z" fill="#535E6B"/>
<path d="M227.647 20.9211C227.647 18.438 228.396 17.0784 230.745 17.0784C233.094 17.0784 233.843 18.438 233.843 20.9211C233.843 23.4043 233.094 24.6796 230.745 24.6796C228.396 24.6796 227.647 23.4043 227.647 20.9211ZM232.284 20.9211C232.284 19.2275 231.975 18.3739 230.745 18.3739C229.516 18.3739 229.207 19.2275 229.207 20.9211C229.207 22.6148 229.516 23.384 230.745 23.384C231.975 23.384 232.284 22.6182 232.284 20.9211Z" fill="#535E6B"/>
<path d="M94.8946 30.469H96.0966L97.4565 35.334H96.9139L96.5568 34.0824H94.4378L94.0807 35.334H93.5381L94.898 30.469H94.8946ZM94.558 33.5999H96.4331L95.681 30.9346H95.3101L94.558 33.5999Z" fill="#535E6B"/>
<path d="M103.827 30.9919C103.827 30.9919 102.831 30.8704 102.419 30.8704C101.718 30.8704 101.344 31.1167 101.344 31.6633C101.344 32.2976 101.687 32.4022 102.553 32.5911C103.542 32.8104 103.978 33.0466 103.978 33.8968C103.978 34.973 103.377 35.3947 102.398 35.3947C101.811 35.3947 100.832 35.2395 100.832 35.2395L100.891 34.7908C100.891 34.7908 101.863 34.9156 102.371 34.9156C103.071 34.9156 103.429 34.612 103.429 33.9406C103.429 33.3907 103.137 33.2389 102.326 33.0837C101.303 32.8644 100.788 32.6282 100.788 31.7004C100.788 30.7726 101.416 30.3914 102.385 30.3914C102.972 30.3914 103.882 30.5331 103.882 30.5331L103.83 30.9885L103.827 30.9919Z" fill="#535E6B"/>
<path d="M107.793 30.469H110.805V30.9481H108.343V32.6282H110.376V33.1006H108.343V34.8583H110.805V35.3374H107.793V30.4724V30.469Z" fill="#535E6B"/>
<path d="M117.371 30.9919C117.371 30.9919 116.375 30.8704 115.96 30.8704C115.259 30.8704 114.888 31.1167 114.888 31.6633C114.888 32.2976 115.232 32.4022 116.097 32.5911C117.086 32.8104 117.522 33.0466 117.522 33.8968C117.522 34.973 116.921 35.3947 115.943 35.3947C115.355 35.3947 114.377 35.2395 114.377 35.2395L114.435 34.7908C114.435 34.7908 115.407 34.9156 115.915 34.9156C116.616 34.9156 116.973 34.612 116.973 33.9406C116.973 33.3907 116.681 33.2389 115.871 33.0837C114.847 32.8644 114.332 32.6282 114.332 31.7004C114.332 30.7726 114.96 30.3914 115.929 30.3914C116.516 30.3914 117.423 30.5331 117.423 30.5331L117.375 30.9885L117.371 30.9919Z" fill="#535E6B"/>
<path d="M121.139 32.9218C121.139 31.3192 121.561 30.3982 123.093 30.3982C124.624 30.3982 125.054 31.3058 125.054 32.9218C125.054 34.5379 124.631 35.4049 123.093 35.4049C121.554 35.4049 121.139 34.5547 121.139 32.9218ZM124.48 32.9218C124.48 31.606 124.223 30.8773 123.093 30.8773C121.963 30.8773 121.705 31.6026 121.705 32.9218C121.705 34.241 121.949 34.9259 123.093 34.9259C124.236 34.9259 124.48 34.2916 124.48 32.9218Z" fill="#535E6B"/>
<path d="M129.477 33.4717V35.334H128.928V30.469H130.758C131.795 30.469 132.341 30.9177 132.341 31.9467C132.341 32.6654 132.056 33.1647 131.431 33.3604L132.383 35.3374H131.775L130.882 33.4751H129.477V33.4717ZM130.758 30.9481H129.477V32.9926H130.765C131.51 32.9926 131.775 32.5574 131.775 31.9434C131.775 31.2753 131.452 30.9447 130.758 30.9447V30.9481Z" fill="#535E6B"/>
<path d="M136.198 30.469H139.21V30.9481H136.747V32.6282H138.78V33.1006H136.747V34.8583H139.21V35.3374H136.198V30.4724V30.469Z" fill="#535E6B"/>
<path d="M145.776 30.9919C145.776 30.9919 144.78 30.8704 144.368 30.8704C143.667 30.8704 143.293 31.1167 143.293 31.6633C143.293 32.2976 143.637 32.4022 144.502 32.5911C145.491 32.8104 145.927 33.0466 145.927 33.8968C145.927 34.973 145.326 35.3947 144.347 35.3947C143.76 35.3947 142.781 35.2395 142.781 35.2395L142.84 34.7908C142.84 34.7908 143.812 34.9156 144.32 34.9156C145.021 34.9156 145.378 34.612 145.378 33.9406C145.378 33.3907 145.086 33.2389 144.275 33.0837C143.252 32.8644 142.737 32.6282 142.737 31.7004C142.737 30.7726 143.365 30.3914 144.334 30.3914C144.921 30.3914 145.831 30.5331 145.831 30.5331L145.78 30.9885L145.776 30.9919Z" fill="#535E6B"/>
<path d="M154.183 30.469H157.146V30.9481H154.736V32.8475H156.775V33.3266H154.736V35.3374H154.186V30.4724L154.183 30.469Z" fill="#535E6B"/>
<path d="M160.811 30.469H161.361V35.334H160.811V30.469Z" fill="#535E6B"/>
<path d="M168.212 30.9919C168.212 30.9919 167.216 30.8704 166.804 30.8704C166.103 30.8704 165.729 31.1167 165.729 31.6633C165.729 32.2976 166.072 32.4022 166.938 32.5911C167.927 32.8104 168.363 33.0466 168.363 33.8968C168.363 34.973 167.762 35.3947 166.78 35.3947C166.192 35.3947 165.214 35.2395 165.214 35.2395L165.272 34.7908C165.272 34.7908 166.244 34.9156 166.752 34.9156C167.453 34.9156 167.81 34.612 167.81 33.9406C167.81 33.3907 167.515 33.2389 166.707 33.0837C165.684 32.8644 165.169 32.6282 165.169 31.7004C165.169 30.7726 165.797 30.3914 166.766 30.3914C167.353 30.3914 168.263 30.5331 168.263 30.5331L168.212 30.9885V30.9919Z" fill="#535E6B"/>
<path d="M175.169 35.2565C174.819 35.3273 174.276 35.4049 173.803 35.4049C172.322 35.4049 171.993 34.5176 171.993 32.9151C171.993 31.3125 172.315 30.3982 173.803 30.3982C174.311 30.3982 174.853 30.4893 175.169 30.5534L175.149 31.0089C174.826 30.9515 174.246 30.884 173.861 30.884C172.759 30.884 172.566 31.5318 172.566 32.9151C172.566 34.2983 172.745 34.9191 173.875 34.9191C174.276 34.9191 174.805 34.855 175.149 34.7943L175.169 35.2565Z" fill="#535E6B"/>
<path d="M179.86 30.469H181.062L182.422 35.334H181.88L181.523 34.0824H179.404L179.046 35.334H178.504L179.864 30.469H179.86ZM179.524 33.5999H181.399L180.647 30.9346H180.276L179.524 33.5999Z" fill="#535E6B"/>
<path d="M186.066 35.334V30.469H186.615V34.8482H188.789V35.334H186.062H186.066Z" fill="#535E6B"/>
<path d="M192.361 30.469H195.373V30.9481H192.91V32.6282H194.943V33.1006H192.91V34.8583H195.373V35.3374H192.361V30.4724V30.469Z" fill="#535E6B"/>
<path d="M201.939 30.9919C201.939 30.9919 200.943 30.8704 200.531 30.8704C199.831 30.8704 199.456 31.1167 199.456 31.6633C199.456 32.2976 199.8 32.4022 200.665 32.5911C201.654 32.8104 202.09 33.0466 202.09 33.8968C202.09 34.973 201.489 35.3947 200.507 35.3947C199.92 35.3947 198.941 35.2395 198.941 35.2395L199 34.7908C199 34.7908 199.971 34.9156 200.48 34.9156C201.18 34.9156 201.537 34.612 201.537 33.9406C201.537 33.3907 201.242 33.2389 200.435 33.0837C199.412 32.8644 198.896 32.6282 198.896 31.7004C198.896 30.7726 199.525 30.3914 200.493 30.3914C201.081 30.3914 201.991 30.5331 201.991 30.5331L201.939 30.9885V30.9919Z" fill="#535E6B"/>
</g>
<defs>
<clipPath id="clip0_69_768">
<rect width="233.846" height="50" fill="white"/>
</clipPath>
</defs>
</svg>
