<svg width="176" height="175" viewBox="0 0 176 175" fill="none" xmlns="http://www.w3.org/2000/svg">
<g clip-path="url(#clip0_69_729)">
<path d="M0 87.5C0 121.37 19.3096 150.797 47.4932 165.411V155.362C24.3471 141.585 8.8002 116.329 8.8002 87.5C8.8002 61.7483 21.2033 38.8406 40.349 24.4239V126.505H47.4932V19.6375C55.2318 15.0314 63.8189 11.7161 72.9593 9.97857V173.959C75.849 174.451 78.7838 174.799 81.7595 175.004V0C78.7838 0.200801 75.849 0.549129 72.9593 1.04498C31.5979 8.0935 0 44.168 0 87.5Z" fill="#CBBAA1"/>
<path d="M103.04 1.04498C100.151 0.553227 97.216 0.204899 94.2402 0V175C97.216 174.799 100.151 174.447 103.04 173.955V9.97857C112.181 11.7202 120.768 15.0314 128.507 19.6375V126.505H135.651V24.4239C154.796 38.8406 167.2 61.7483 167.2 87.5C167.2 116.329 151.653 141.585 128.507 155.362V165.411C156.686 150.797 176 121.37 176 87.5C176 44.168 144.402 8.0935 103.04 1.04089V1.04498Z" fill="#CBBAA1"/>
</g>
<defs>
<clipPath id="clip0_69_729">
<rect width="176" height="175" fill="white"/>
</clipPath>
</defs>
</svg>
