<svg width="65" height="65" viewBox="0 0 65 65" fill="none" xmlns="http://www.w3.org/2000/svg">
<rect x="0.5" y="0.5" width="64" height="64" rx="32" stroke="#535E6B" stroke-opacity="0.2"/>
<path fill-rule="evenodd" clip-rule="evenodd" d="M28.1883 32.1021C27.9372 31.858 27.9372 31.4623 28.1883 31.2182L32.0454 27.4682C32.2965 27.2241 32.7035 27.2241 32.9546 27.4682L36.8117 31.2182C37.0628 31.4623 37.0628 31.858 36.8117 32.1021C36.5607 32.3461 36.1536 32.3461 35.9026 32.1021L33.1429 29.419V36.6602C33.1429 37.0053 32.8551 37.2852 32.5 37.2852C32.145 37.2852 31.8571 37.0053 31.8571 36.6602V29.419L29.0974 32.1021C28.8464 32.3461 28.4393 32.3461 28.1883 32.1021Z" fill="#535E6B"/>
</svg>
